# xmcd
#
# Track frame offsets:
#	150
#	18063
#	34955
#	49080
#	64691
#	84057
#	105276
#	122577
#	139918
#	153308
#	169000
#
# Disc length: 2487 seconds
# Revision: 0
# Processed by: cddbd v1.5.2PL0 Copyright (c) Steve Scherf et al.
# Submitted via: dBpowerAMP V12.0
#
DISCID=7b09b50b
DTITLE=Martina McBride - Waking Up Laughing
DYEAR=1900
DGENRE=
TTITLE0=Love Land
TTITLE1=If I Had Your Name
TTITLE2=Cry Cry (Til The Sun Shines)
TTITLE3=Tryin' To Find A Reason
TTITLE4=For These Times
TTITLE5=Anyway
TTITLE6=How I Feel
TTITLE7=I'll Still Be Me
TTITLE8=Beautiful Again
TTITLE9=Everybody Does
TTITLE10=House Of A Thousand Dreams
EXTD=
EXTT0=
EXTT1=
EXTT2=
EXTT3=
EXTT4=
EXTT5=
EXTT6=
EXTT7=
EXTT8=
EXTT9=
EXTT10=
PLAYORDER=
